# xmcd
#
# Track frame offsets: 
#        300
#        13046
#        21112
#        29550
#        40140
#        48426
#        59796
#        70814
#        82428
#        93650
#        105672
#        118026
#        128368
#        138414
#        147944
#        159150
#        169032
#        179430
#        188452
#        198614
#
# Disc length: 2756 seconds
#
# Revision: 2
# Processed by: cddbd v1.5.2PL0 Copyright (c) Steve Scherf et al.
# Submitted via: ExactAudioCopy v0.95b4
#
DISCID=1e0ac014
DTITLE=Johnny Cash - The Johnny Cash Collection (LP)
DYEAR=1900
DGENRE=Country
TTITLE0=Folsom Prison Blues
TTITLE1=I Walk The Line
TTITLE2=Rock Island Line
TTITLE3=Country Boy
TTITLE4=Doin' My Time
TTITLE5=Hey Porter
TTITLE6=Life Goes On
TTITLE7=You Win Again
TTITLE8=There You Go
TTITLE9=Sugartime
TTITLE10=I Can't Help It
TTITLE11=Mean Eyed Cat
TTITLE12=Big River
TTITLE13=Don't Make Me Go
TTITLE14=Wide Open Road
TTITLE15=Cold, Cold Heart
TTITLE16=New Mexico
TTITLE17=Cry, Cry, Cry
TTITLE18=Wreck Of The Old 97
TTITLE19=I Could Never Be - Ashamed Of You
EXTD=
EXTT0=
EXTT1=
EXTT2=
EXTT3=
EXTT4=
EXTT5=
EXTT6=
EXTT7=
EXTT8=
EXTT9=
EXTT10=
EXTT11=
EXTT12=
EXTT13=
EXTT14=
EXTT15=
EXTT16=
EXTT17=
EXTT18=
EXTT19=
PLAYORDER=
